:SAMPLES-PER-SECOND 30
:FULLY-SPECIFIED
:DEGREES
1
root  65.4951 40.4549 -4.40991 -152.349 -88.0536 152.361
RightUpLeg  0.604011 -9.17849 -7.50253
RightLeg  4.98277 -3.38611 3.24007
RightFoot  -3.23917 -0.115154 1.36124
RightToes  -1.74624e-010 0 -3.6325e-017
Spine  5.72478 0.665033 0.2789
Spine1  2.36618 0.759361 0.00139064
HEad  0.576019 4.47779 0.0398384
LeftShoulder1  1.45763 -3.45208 -14.0368
LeftArm  -19.8358 10.9384 -2.06842
LeftForeArm  13.0523 -1.8505 -0.290209
LeftHand  -0.244104 0.0205437 5.32207
RightShoulder  0.532789 -0.40184 9.86446
RightArm  -29.3632 -4.65538 0.822163
RightForeArm  11.6766 6.69928 0.378724
RightHand  -4.12233 15.7048 -22.7415
LeftUpLeg  1.47504 4.92262 2.74379
LeftLeg  3.49386 12.7287 -3.22771
LeftFoot  -4.35403 0.0419258 -0.2507
LeftToes  8.00323e-011 -1.37366e-010 4.43692e-012
2
root  65.4635 40.4513 -4.38496 -153.138 -88.0964 153.132
RightUpLeg  0.690604 -9.18888 -7.50141
RightLeg  4.96121 -3.44463 3.24356
RightFoot  -3.22558 -0.11234 1.31758
RightToes  -1.74624e-010 0 -3.6325e-017
Spine  5.82505 0.648659 0.22362
Spine1  2.48069 0.702928 0.18772
HEad  0.505603 3.73745 0.127316
LeftShoulder1  1.45763 -3.38026 -14.1944
LeftArm  -19.8271 10.9545 -2.03241
LeftForeArm  13.0168 -1.91902 -0.304076
LeftHand  -0.244104 0.0205437 5.32207
RightShoulder  0.410263 -1.0819 9.59969
RightArm  -29.9137 -3.8204 1.40228
RightForeArm  11.23 6.56982 0.330516
RightHand  -4.03926 15.0904 -22.9441
LeftUpLeg  1.4527 4.91067 2.72416
LeftLeg  3.69839 12.7165 -3.12717
LeftFoot  -4.47737 0.0441978 -0.28601
LeftToes  8.00323e-011 -1.37366e-010 4.43692e-012
3
root  65.3958 40.4428 -4.34048 -154.44 -88.0843 154.495
RightUpLeg  0.702975 -9.17581 -7.51442
RightLeg  5.0131 -3.46111 3.19293
RightFoot  -3.35069 -0.110158 1.28372
RightToes  -1.74624e-010 0 -3.6325e-017
Spine  5.91202 0.630175 0.0725235
Spine1  2.60869 0.620801 0.475698
HEad  0.256557 3.86649 0.0413097
LeftShoulder1  1.45761 -3.30442 -14.45
LeftArm  -19.6369 11.1202 -1.89358
LeftForeArm  12.7168 -2.06885 -0.389042
LeftHand  -0.244104 0.0205437 5.32207
RightShoulder  0.350165 -1.40305 9.30715
RightArm  -30.3691 -3.18977 1.824
RightForeArm  10.3492 6.41693 0.306997
RightHand  -3.9411 14.4189 -23.1359
LeftUpLeg  1.36346 4.89855 2.65898
LeftLeg  3.99729 12.7467 -2.99525
LeftFoot  -4.73525 0.0500239 -0.376551
LeftToes  8.00323e-011 -1.37366e-010 4.43692e-012
4
root  65.3019 40.4301 -4.28998 -154.866 -87.9269 155.095
RightUpLeg  0.562054 -9.17799 -7.61831
RightLeg  5.16074 -3.22727 3.11496
RightFoot  -3.6147 -0.126817 1.54221
RightToes  -1.74624e-010 0 -3.6325e-017
Spine  5.85982 0.665826 -0.0443954
Spine1  2.64942 0.650894 0.495631
HEad  0.44925 3.96558 -0.0818828
LeftShoulder1  1.45344 -3.2843 -14.4509
LeftArm  -19.3531 11.3505 -1.85293
LeftForeArm  12.4423 -2.18043 -0.500238
LeftHand  -0.244104 0.0205437 5.32207
RightShoulder  0.409531 -1.04646 9.29351
RightArm  -30.0497 -3.40929 1.59268
RightForeArm  9.37071 6.45418 0.443906
RightHand  -3.91413 14.2772 -23.1438
LeftUpLeg  1.28577 4.84544 2.50843
LeftLeg  4.12896 12.9422 -2.94687
LeftFoot  -4.99412 0.0567055 -0.480389
LeftToes  8.00323e-011 -1.37366e-010 4.43692e-012
5
root  65.1903 40.4175 -4.23245 -154.694 -87.7273 155.119
RightUpLeg  0.424134 -9.25688 -7.81045
RightLeg  5.30747 -2.91647 3.09969
RightFoot  -3.79913 -0.145364 1.82998
RightToes  -1.74624e-010 0 -3.6325e-017
Spine  5.77827 0.751722 -0.0443306
Spine1  2.62112 0.789402 0.262796
HEad  0.703346 3.81316 -0.128029
LeftShoulder1  1.43766 -3.27719 -14.2213
LeftArm  -19.2437 11.4495 -1.94649
LeftForeArm  12.5219 -2.14658 -0.527758
LeftHand  -0.244104 0.0205437 5.32207
RightShoulder  0.463234 -0.755855 9.51759
RightArm  -29.3663 -3.88762 1.08913
RightForeArm  8.9912 6.79397 0.67571
RightHand  -3.90017 14.4172 -22.9089
LeftUpLeg  1.29396 4.75685 2.3158
LeftLeg  4.11889 13.2393 -2.96068
LeftFoot  -5.2399 0.0591858 -0.517097
LeftToes  8.00323e-011 -1.37366e-010 4.43692e-012
6
root  65.0705 40.3986 -4.16103 -154.744 -87.668 155.29
RightUpLeg  0.468225 -9.41938 -8.02122
RightLeg  5.38766 -2.7636 3.18832
RightFoot  -4.02207 -0.144305 1.82781
RightToes  -1.74624e-010 0 -3.6325e-017
Spine  5.85284 0.797397 -0.0254334
Spine1  2.57704 0.85937 0.159177
HEad  0.644539 3.63151 -0.196464
LeftShoulder1  1.43099 -3.25815 -14.1785
LeftArm  -19.3672 11.4758 -1.90512
LeftForeArm  12.7465 -2.08182 -0.44941
LeftHand  -0.244104 0.0205437 5.32207
RightShoulder  0.446312 -0.878871 9.67502
RightArm  -29.1996 -4.0073 0.823712
RightForeArm  9.92242 7.20153 0.73561
RightHand  -3.86077 14.596 -22.4934
LeftUpLeg  1.25887 4.76067 2.17011
LeftLeg  4.42352 13.2942 -2.87316
LeftFoot  -5.83238 0.0689068 -0.704161
LeftToes  8.00323e-011 -1.37366e-010 4.43692e-012
7
root  64.9434 40.3526 -4.06974 -153.914 -87.776 154.458
RightUpLeg  0.688932 -9.64141 -8.31793
RightLeg  5.57206 -2.59169 3.32739
RightFoot  -4.7225 -0.156331 2.15975
RightToes  -1.74624e-010 0 -3.6325e-017
Spine  6.10616 0.723646 -0.0976858
Spine1  2.58805 0.752822 0.278527
HEad  0.366077 3.76128 -0.340986
LeftShoulder1  1.44694 -3.26259 -14.4205
LeftArm  -19.5383 11.7033 -1.67001
LeftForeArm  12.8758 -2.26855 -0.354567
LeftHand  -0.244104 0.0205437 5.32207
RightShoulder  0.415471 -1.05418 9.62718
RightArm  -29.7181 -3.82088 0.95385
RightForeArm  11.0102 7.42702 0.598229
RightHand  -3.87063 14.8101 -22.3181
LeftUpLeg  1.03071 4.98419 2.02705
LeftLeg  5.47991 12.8639 -2.51329
LeftFoot  -7.18314 0.0938637 -1.42486
LeftToes  8.00323e-011 -1.37366e-010 4.43692e-012
8
root  64.797 40.2687 -3.95209 -150.573 -87.9006 150.906
RightUpLeg  0.932438 -9.98476 -8.83493
RightLeg  6.31512 -2.13296 3.38451
RightFoot  -5.92565 -0.203548 3.47186
RightToes  -1.74624e-010 0 -3.6325e-017
Spine  6.43762 0.552042 -0.180101
Spine1  2.79053 0.569123 0.259037
HEad  0.146269 3.91478 -0.429293
LeftShoulder1  1.46289 -3.28103 -14.6142
LeftArm  -19.7538 12.1867 -1.59175
LeftForeArm  13.24 -2.91785 -0.285764
LeftHand  -0.244104 0.0205437 5.32207
RightShoulder  0.413377 -1.0631 9.60067
RightArm  -30.5041 -3.66011 1.51008
RightForeArm  9.37013 7.79596 0.614517
RightHand  -3.96596 14.7482 -22.9136
LeftUpLeg  0.818441 5.42354 1.73064
LeftLeg  7.10456 12.1309 -1.8738
LeftFoot  -9.17211 0.103724 -2.60127
LeftToes  8.00323e-011 -1.37366e-010 4.43692e-012
9
root  64.6168 40.1595 -3.80241 -146.336 -87.8982 146.132
RightUpLeg  1.07782 -10.7863 -9.47478
RightLeg  8.01068 -1.22396 3.13181
RightFoot  -7.20644 -0.226503 4.89159
RightToes  -1.74624e-010 0 -3.6325e-017
Spine  6.81047 0.383946 -0.107394
Spine1  3.32543 0.473009 -0.14319
HEad  0.0215064 3.56589 -0.438333
LeftShoulder1  1.46688 -3.25631 -14.7644
LeftArm  -20.4711 12.6683 -1.93687
LeftForeArm  14.1589 -4.14165 -0.131952
LeftHand  -0.244104 0.0205437 5.32207
RightShoulder  0.420792 -1.06141 9.93071
RightArm  -31.6292 -3.71355 2.58294
RightForeArm  3.78401 8.95933 1.0056
RightHand  -4.11877 14.1888 -24.4054
LeftUpLeg  1.04424 5.8873 1.2821
LeftLeg  8.72765 11.5605 -1.14993
LeftFoot  -11.2929 0.0696148 -3.72214
LeftToes  8.00323e-011 -1.37366e-010 4.43692e-012
10
root  64.4047 40.0343 -3.62212 -145.995 -87.7041 144.966
RightUpLeg  0.98969 -12.2079 -9.92254
RightLeg  10.6552 0.375389 2.33117
RightFoot  -8.43289 -0.193122 5.31048
RightToes  -1.74624e-010 0 -3.6325e-017
Spine  7.27073 0.35012 0.158843
Spine1  4.14065 0.566619 -0.775478
HEad  -0.010167 2.80215 -0.559536
LeftShoulder1  1.49884 -3.22473 -15.3911
LeftArm  -22.2553 12.9761 -2.72556
LeftForeArm  15.2192 -6.06573 0.236576
LeftHand  -0.244104 0.0205437 5.32207
RightShoulder  0.451581 -0.995336 10.7852
RightArm  -33.5701 -4.17815 4.04005
RightForeArm  -3.30379 11.1856 1.65192
RightHand  -4.36867 13.7947 -26.3114
LeftUpLeg  1.76925 6.3653 0.891826
LeftLeg  10.1388 11.263 -0.579322
LeftFoot  -13.2767 0.00319489 -4.53092
LeftToes  8.00323e-011 -1.37366e-010 4.43692e-012
11
root  64.1795 39.8782 -3.41808 -151.669 -87.1776 149.78
RightUpLeg  0.171445 -12.8909 -10.0258
RightLeg  14.3472 1.9113 1.14945
RightFoot  -9.61354 -0.148827 5.67403
RightToes  -1.74624e-010 0 -3.6325e-017
Spine  7.85894 0.571868 0.569402
Spine1  4.94367 0.928475 -1.49379
HEad  0.277522 2.04848 -0.797207
LeftShoulder1  1.59964 -3.29098 -16.7635
LeftArm  -25.0802 13.1809 -4.09687
LeftForeArm  15.9154 -8.71351 0.70764
LeftHand  -0.244104 0.0205437 5.32207
RightShoulder  0.565834 -0.568128 12.1822
RightArm  -36.02 -5.324 5.48561
RightForeArm  -8.49393 14.3796 2.63167
RightHand  -4.69571 14.1092 -27.7522
LeftUpLeg  2.56913 7.11135 0.684549
LeftLeg  11.6149 11.0398 -0.242961
LeftFoot  -15.1642 -0.0787083 -5.08455
LeftToes  8.00323e-011 -1.37366e-010 4.43692e-012
12
root  63.9579 39.6889 -3.19753 -159.57 -86.066 157.007
RightUpLeg  -2.20366 -10.6876 -10.0539
RightLeg  20.0103 1.22344 0.176418
RightFoot  -9.83284 -0.169686 7.55731
RightToes  -1.74624e-010 0 -3.6325e-017
Spine  8.63024 1.06336 1.06996
Spine1  5.46851 1.58783 -2.38243
HEad  0.914657 1.47905 -0.91157
LeftShoulder1  1.76316 -3.45123 -18.7187
LeftArm  -28.2547 13.2889 -6.06319
LeftForeArm  16.7356 -11.69 0.85106
LeftHand  -0.244104 0.0205437 5.32207
RightShoulder  0.794561 0.266337 14.1705
RightArm  -37.2933 -7.08212 6.69298
RightForeArm  -10.9042 18.5709 4.13216
RightHand  -4.90563 14.5081 -28.3773
LeftUpLeg  3.1511 8.10009 0.521001
LeftLeg  13.2251 11.1306 -0.0411336
LeftFoot  -16.8875 -0.156486 -5.3264
LeftToes  8.00323e-011 -1.37366e-010 4.43692e-012
